<svg width="54" height="46" viewBox="0 0 54 46" fill="none" xmlns="http://www.w3.org/2000/svg">
<g clip-path="url(#clip0_12_42)">
<path d="M48.381 19H44.8583C44.65 17.9867 44.2854 17.0966 43.7646 16.3295C43.2532 15.5625 42.6282 14.9186 41.8896 14.3977C41.1604 13.8674 40.3507 13.4697 39.4606 13.2045C38.5704 12.9394 37.6424 12.8068 36.6765 12.8068C34.9151 12.8068 33.3195 13.2519 31.8896 14.142C30.4691 15.0322 29.3375 16.3438 28.4947 18.0767C27.6613 19.8097 27.2447 21.9356 27.2447 24.4545C27.2447 26.9735 27.6613 29.0994 28.4947 30.8324C29.3375 32.5653 30.4691 33.8769 31.8896 34.767C33.3195 35.6572 34.9151 36.1023 36.6765 36.1023C37.6424 36.1023 38.5704 35.9697 39.4606 35.7045C40.3507 35.4394 41.1604 35.0464 41.8896 34.5256C42.6282 33.9953 43.2532 33.3466 43.7646 32.5795C44.2854 31.803 44.65 30.9129 44.8583 29.9091H48.381C48.1159 31.3958 47.6329 32.7263 46.9322 33.9006C46.2314 35.0748 45.3602 36.0739 44.3185 36.8977C43.2769 37.7121 42.1074 38.3324 40.81 38.7585C39.5221 39.1847 38.1443 39.3977 36.6765 39.3977C34.1954 39.3977 31.989 38.7917 30.0572 37.5795C28.1254 36.3674 26.6055 34.6439 25.4975 32.4091C24.3896 30.1742 23.8356 27.5227 23.8356 24.4545C23.8356 21.3864 24.3896 18.7348 25.4975 16.5C26.6055 14.2652 28.1254 12.5417 30.0572 11.3295C31.989 10.1174 34.1954 9.51136 36.6765 9.51136C38.1443 9.51136 39.5221 9.72443 40.81 10.1506C42.1074 10.5767 43.2769 11.2017 44.3185 12.0256C45.3602 12.84 46.2314 13.8343 46.9322 15.0085C47.6329 16.1733 48.1159 17.5038 48.381 19Z" fill="black"/>
<path d="M11.4989 23.2727C10.3171 23.2727 9.28018 22.9915 8.38814 22.429C7.50178 21.8665 6.80859 21.0795 6.30859 20.0682C5.81428 19.0568 5.56712 17.875 5.56712 16.5227C5.56712 15.1591 5.81428 13.9687 6.30859 12.9517C6.80859 11.9347 7.50178 11.1449 8.38814 10.5824C9.28018 10.0199 10.3171 9.73864 11.4989 9.73864C12.6808 9.73864 13.7148 10.0199 14.6012 10.5824C15.4933 11.1449 16.1864 11.9347 16.6808 12.9517C17.1808 13.9687 17.4308 15.1591 17.4308 16.5227C17.4308 17.875 17.1808 19.0568 16.6808 20.0682C16.1864 21.0795 15.4933 21.8665 14.6012 22.429C13.7148 22.9915 12.6808 23.2727 11.4989 23.2727ZM11.4989 21.4659C12.3967 21.4659 13.1353 21.2358 13.7148 20.7756C14.2944 20.3153 14.7234 19.7102 15.0018 18.9602C15.2802 18.2102 15.4194 17.3977 15.4194 16.5227C15.4194 15.6477 15.2802 14.8324 15.0018 14.0767C14.7234 13.321 14.2944 12.7102 13.7148 12.2443C13.1353 11.7784 12.3967 11.5455 11.4989 11.5455C10.6012 11.5455 9.86257 11.7784 9.28303 12.2443C8.70348 12.7102 8.2745 13.321 7.99609 14.0767C7.71768 14.8324 7.57848 15.6477 7.57848 16.5227C7.57848 17.3977 7.71768 18.2102 7.99609 18.9602C8.2745 19.7102 8.70348 20.3153 9.28303 20.7756C9.86257 21.2358 10.6012 21.4659 11.4989 21.4659Z" fill="black"/>
</g>
<defs>
<clipPath id="clip0_12_42">
<rect width="54" height="46" fill="white"/>
</clipPath>
</defs>
</svg>
